<svg
  xmlns="http://www.w3.org/2000/svg"
  viewBox="0 0 150 73"
  fill="none">
  <defs>
    <style>:root>g{display:none;}:root>g:target{display:inline;}</style>
    <g
      id="hp-logo-plus"
    >
      <path
        d="M89.9008 33.6408H92.797V34.5668C92.797 35.0434 92.7464 35.4422 92.7464 35.4422H92.797C92.797 35.4422 93.8961 33.34 96.8901 33.34C100.336 33.34 102.531 36.0674 102.531 40.0216C102.531 44.0737 100.059 46.7031 96.7148 46.7031C94.1928 46.7031 93.0701 44.9524 93.0701 44.9524H93.0195C93.0195 44.9524 93.0701 45.4019 93.0701 46.0542V51.4075H89.9008V33.6408ZM96.1416 44.0264C97.8881 44.0264 99.3379 42.6002 99.3379 40.0723C99.3379 37.6457 98.0398 36.0674 96.1686 36.0674C94.5199 36.0674 92.9723 37.2672 92.9723 40.0959C92.9723 42.073 94.0445 44.0264 96.1416 44.0264Z"
      />
      <path
        d="M105.029 33.6408H108.074V35.8409C108.074 36.3175 108.023 36.7433 108.023 36.7433H108.074C108.647 34.9183 110.171 33.4651 112.116 33.4651C112.416 33.4651 112.69 33.5158 112.69 33.5158V36.6419C112.69 36.6419 112.366 36.5912 111.941 36.5912C110.592 36.5912 109.072 37.3685 108.472 39.2679C108.273 39.8931 108.199 40.5927 108.199 41.3464V46.3989H105.029V33.6408Z"
      />
      <path
        d="M115.377 28.6389H118.522V31.4677H115.377V28.6389ZM115.377 33.6408H118.546V46.4023H115.377V33.6408Z"
      />
      <path
        d="M122.208 33.6408H125.252V35.1177C125.252 35.5942 125.202 35.993 125.202 35.993H125.252C125.802 34.9183 127.198 33.34 129.77 33.34C132.592 33.34 134.187 34.8169 134.187 38.1932V46.3989H131.041V38.8421C131.041 37.2908 130.643 36.2398 129.018 36.2398C127.322 36.2398 126.072 37.3145 125.6 38.8421C125.424 39.3693 125.374 39.9438 125.374 40.542V46.3956H122.204V33.6408H122.208Z"
      />
      <path
        d="M137.994 36.3682H136.345V33.8402H138.068V30.1632H141.163V33.8402H144.059V36.3682H141.163V41.3227C141.163 43.4248 142.812 43.7256 143.685 43.7256C144.036 43.7256 144.258 43.6749 144.258 43.6749V46.453C144.258 46.453 143.884 46.5274 143.284 46.5274C141.51 46.5274 137.99 46.0001 137.99 41.7249V36.3682H137.994Z"
      />
      <path
        d="M89.9008 55.2333H92.797V56.1593C92.797 56.6358 92.7464 57.0346 92.7464 57.0346H92.797C92.797 57.0346 93.8961 54.9325 96.8901 54.9325C100.336 54.9325 102.531 57.6598 102.531 61.614C102.531 65.6662 100.059 68.2955 96.7148 68.2955C94.1928 68.2955 93.0701 66.5449 93.0701 66.5449H93.0195C93.0195 66.5449 93.0701 66.9944 93.0701 67.6466V73H89.9008V55.2333ZM96.1416 65.6155C97.8881 65.6155 99.3379 64.1893 99.3379 61.6613C99.3379 59.2347 98.0398 57.6564 96.1686 57.6564C94.5199 57.6564 92.9723 58.8562 92.9723 61.685C92.9723 63.6654 94.0445 65.6155 96.1416 65.6155Z"
      />
      <path
        d="M105.029 50.228H108.175V63.5404C108.175 64.9429 108.65 65.291 109.473 65.291C109.723 65.291 109.948 65.2674 109.948 65.2674V68.0454C109.948 68.0454 109.473 68.1198 108.95 68.1198C107.204 68.1198 105.033 67.6703 105.033 64.0169V50.228H105.029Z"
      />
      <path
        d="M118.944 59.985H119.369V59.8093C119.369 58.133 118.32 57.5584 116.924 57.5584C115.1 57.5584 113.428 58.7852 113.428 58.7852L112.231 56.5074C112.231 56.5074 114.203 54.9325 117.224 54.9325C120.569 54.9325 122.518 56.7845 122.518 60.0121V67.9947H119.598V66.9437C119.598 66.4435 119.649 66.0413 119.649 66.0413H119.598C119.622 66.0413 118.624 68.2921 115.727 68.2921C113.455 68.2921 111.408 66.8659 111.408 64.3143C111.408 60.2621 116.874 59.985 118.944 59.985ZM116.523 65.8149C118.195 65.8149 119.392 64.0135 119.392 62.4623V62.1615H118.843C117.221 62.1615 114.598 62.3879 114.598 64.1622C114.601 65.0139 115.225 65.8149 116.523 65.8149Z"
      />
      <path
        d="M125.532 55.2333H128.577V56.7068C128.577 57.1834 128.526 57.5821 128.526 57.5821H128.577C129.126 56.5074 130.522 54.9291 133.095 54.9291C135.917 54.9291 137.511 56.406 137.511 59.7823V67.988H134.366V60.4312C134.366 58.8799 133.968 57.8289 132.343 57.8289C130.647 57.8289 129.396 58.9036 128.924 60.4312C128.749 60.9584 128.698 61.5329 128.698 62.1311V67.9846H125.529V55.2333H125.532Z"
      />
      <path
        d="M140.741 64.1893C140.741 64.1893 142.141 65.5918 144.211 65.5918C145.111 65.5918 145.883 65.193 145.883 64.4394C145.883 62.5366 139.693 62.7867 139.693 58.6839C139.693 56.308 141.814 54.9325 144.561 54.9325C147.431 54.9325 148.83 56.3823 148.83 56.3823L147.657 58.7346C147.657 58.7346 146.483 57.6328 144.538 57.6328C143.715 57.6328 142.916 57.9843 142.916 58.7852C142.916 60.5866 149.106 60.3602 149.106 64.4664C149.106 66.5922 147.259 68.2955 144.238 68.2955C141.068 68.2955 139.295 66.4198 139.295 66.4198L140.741 64.1893Z"
      />
      <path
        d="M96.0136 20.5481L93.9839 26.138H86.2157L83.1576 34.5499H77.3382L80.3962 26.138H75.6558C75.1028 23.992 74.1419 21.4336 73.7373 20.5481H82.4293L85.4874 12.1396H91.3068L88.2487 20.5481H96.0136Z"
      />
    </g>
    <path
      id="hp-logo-logo"
      d="M36.4135 72.9967C36.0493 72.9967 35.6919 72.9899 35.3312 72.9798L42.7723 52.4789H53.0153C54.8124 52.4789 56.7848 51.0967 57.4018 49.4035L65.4768 27.1756C66.7985 23.5358 64.7182 20.5583 60.8543 20.5583H46.6463L27.9608 72.0098C11.9254 68.1841 0 53.7395 0 36.4966C0 19.754 11.2477 5.64399 26.5818 1.34509L8.01433 52.4789L15.732 52.4823L25.5939 25.354H31.3931L21.5345 52.4823L29.2454 52.4857L38.4331 27.1756C39.7547 23.5358 37.6745 20.5583 33.814 20.5583H27.327L34.7749 0.0371762C35.3211 0.0168984 35.8639 0 36.4135 0C56.5252 0 72.8269 16.3405 72.8269 36.5C72.8269 56.6595 56.5218 72.9967 36.4135 72.9967ZM58.4436 25.3337H52.6444L44.5256 47.6663H50.3248L58.4436 25.3337Z"
    />
  </defs>
  <g id="multicolor-onLight">
    <use href="#hp-logo-plus" fill="#FF8900"/>
    <use href="#hp-logo-logo" fill="#0096D6"/>
  </g>
  <g id="multicolor-onDark">
    <use href="#hp-logo-plus" fill="#FF8900"/>
    <use href="#hp-logo-logo" fill="#0096D6"/>
  </g>
  <g id="singlecolor-onLight">
    <use href="#hp-logo-plus" fill="black"/>
    <use href="#hp-logo-logo" fill="black"/>
  </g>
  <g id="singlecolor-onDark">
    <use href="#hp-logo-plus" fill="white"/>
    <use href="#hp-logo-logo" fill="white"/>
  </g>
</svg>
