<svg
  xmlns="http://www.w3.org/2000/svg"
  viewBox="0 0 235 48"
  fill="none"
>
  <defs>
    <style>:root>g{display:none;}:root>g:target{display:inline;}</style>
    <path
      id="singlecolor"
      d="M53.4143 8.78049L48.4946 0.117073V0H47.7918H38.538H37.4837L37.3666
      0.117073L31.9783 9.6L26.9414 18.6146L21.9046 9.6L16.9848 0.819512L16.5163
      0H16.3991H15.8134H6.67679H5.62256H5.50542L5.03688 0.819512L0.468547 8.89756L0.117137
      9.6L0 9.83415L0.35141 10.5366L5.38829 19.4341L10.7766 28.9171L16.1649 38.4L21.0846 47.1805L21.5531
      48H21.6703H22.1388H32.3297H32.4469L33.0325 46.9463L37.8351 38.4L43.2234 28.9171L48.6117
      19.4341L53.6486 10.5366L53.8829 9.95122L54 9.83415L53.4143 8.78049ZM47.7918
      0.585366L42.9892 9.13171L38.1866 0.585366H47.7918ZM11.4794 10.0683H21.0846L16.282
      18.6146L11.4794 10.0683ZM15.8134 18.9659H6.20824L11.0108 10.4195L15.8134
      18.9659ZM21.2017 28.4488H11.4794L16.282 19.9024L21.2017 28.4488ZM16.8677
      19.5512H26.4729L22.4902 26.5756L21.6703 28.0976L16.8677 19.5512ZM21.6703
      29.2683L26.4729 37.8146H16.8677L21.6703 29.2683ZM22.1388 29.0341H31.744L26.9414
      37.5805L22.1388 29.0341ZM32.3297 29.2683L37.1323 37.8146H27.5271L32.3297
      29.2683ZM31.6269 26.9268L27.41 19.5512H37.0152L32.3297 28.0976L31.6269 26.9268ZM37.718
      19.9024L42.5206 28.4488H32.7983L37.718 19.9024ZM32.7983 10.0683H42.4035L37.6009 18.6146L32.7983
      10.0683ZM42.9892 10.4195L47.7918 18.9659H38.1866L42.9892 10.4195ZM37.718 0.936585L42.5206
      9.48293H32.7983L37.718 0.936585ZM32.3297 10.4195L37.1323 18.9659H27.5271L32.3297
      10.4195ZM31.8612 28.4488H22.256L26.9414 19.9024L31.8612 28.4488ZM26.4729
      18.9659H16.8677L20.8503 11.9415L21.6703 10.4195L26.4729 18.9659ZM21.2017
      9.48293H11.4794L15.462 2.45854L16.282 0.936585L21.2017 9.48293ZM15.8134 0.585366L11.0108
      9.13171L6.20824 0.585366H15.8134ZM5.62256 0.936585L10.5423 9.48293H0.819957L5.62256 0.936585ZM0.819957
      10.0683H10.5423L5.7397 18.6146L0.819957 10.0683ZM6.20824 19.5512H15.8134L11.0108
      28.0976L6.20824 19.5512ZM11.4794 29.0341H21.0846L16.282 37.5805L11.4794 29.0341ZM26.4729
      38.5171L21.6703 47.0634L16.8677 38.5171H26.4729ZM22.1388 47.4146L26.9414
      38.8683L31.744 47.4146H22.1388ZM32.3297 47.0634L27.5271 38.5171H37.1323L32.3297
      47.0634ZM37.718 37.5805L32.7983 29.0341H42.4035L37.718 37.5805ZM42.9892 28.0976L38.1866
      19.5512H47.7918L42.9892 28.0976ZM48.3774 18.6146L43.5748 10.0683H53.18L48.3774
      18.6146ZM43.4577 9.48293L48.2603 0.936585L53.0629 9.48293H43.4577Z"
    />
    <g id="multicolor">
      <path
        d="M26.8085 38.2979L29.4638 43.0468L32.1702 47.8468H26.8085H21.4468L24.1021 43.0468L26.8085 38.2979Z"
        fill="#E64577"
      />
      <path
        d="M32.1703 47.8468L29.4639 43.0468L26.8086 38.2979H32.1703H37.532L34.8256 43.0468L32.1703 47.8468Z"
        fill="#D94E9C"
      />
      <path
        d="M32.1703 28.749L34.8256 33.549L37.532 38.2979H32.1703H26.8086L29.4639 33.549L32.1703 28.749Z"
        fill="#A8417B"
      />
      <path
        d="M37.5321 38.2979L34.8257 33.549L32.1704 28.749H37.5321H42.8938L40.1874 33.549L37.5321 38.2979Z"
        fill="#964E96"
      />
      <path
        d="M37.5321 19.2511L40.1874 24L42.8938 28.749H37.5321H32.1704L34.8257 24L37.5321 19.2511Z"
        fill="#4483CF"
      />
      <path
        d="M42.8934 28.749L40.1871 24L37.5317 19.2511H42.8934H48.2551L45.5488 24L42.8934 28.749Z"
        fill="#0096D6"
      />
      <path
        d="M42.8934 9.70215L45.5488 14.4511L48.2551 19.2511H42.8934H37.5317L40.1871 14.4511L42.8934 9.70215Z"
        fill="#2AC5E0"
      />
      <path
        d="M26.8085 19.2511L29.4638 24L32.1702 28.749H26.8085H21.4468L24.1021 24L26.8085 19.2511Z"
        fill="#A8417B"
      />
      <path
        d="M32.1703 9.70215L34.8256 14.4511L37.532 19.2511H32.1703H26.8086L29.4639 14.4511L32.1703 9.70215Z"
        fill="#4483CF"
      />
      <path
        d="M37.5321 19.2511L34.8257 14.4511L32.1704 9.70215H37.5321H42.8938L40.1874 14.4511L37.5321 19.2511Z"
        fill="#269EB3"
      />
      <path
        d="M32.1703 28.749L29.4639 24L26.8086 19.2511H32.1703H37.532L34.8256 24L32.1703 28.749Z"
        fill="#3367A6"
      />
      <path
        d="M21.4467 47.8468L18.7403 43.0468L16.085 38.2979H21.4467H26.8084L24.102 43.0468L21.4467 47.8468Z"
        fill="#FA6996"
      />
      <path
        d="M21.4467 28.749L24.102 33.549L26.8084 38.2979H21.4467H16.085L18.7403 33.549L21.4467 28.749Z"
        fill="#E64577"
      />
      <path
        d="M26.8085 38.2979L24.1021 33.549L21.4468 28.749H26.8085H32.1702L29.4638 33.549L26.8085 38.2979Z"
        fill="#7F345F"
      />
      <path
        d="M16.0853 38.2979L13.379 33.549L10.7236 28.749H16.0853H21.447L18.7407 33.549L16.0853 38.2979Z"
        fill="#FF948A"
      />
      <path
        d="M16.0853 19.2511L18.7407 24L21.447 28.749H16.0853H10.7236L13.379 24L16.0853 19.2511Z"
        fill="#FF6445"
      />
      <path
        d="M21.4467 28.749L18.7403 24L16.085 19.2511H21.4467H26.8084L24.102 24L21.4467 28.749Z"
        fill="#CC2C00"
      />
      <path
        d="M16.0853 0.153198L18.7407 4.9532L21.447 9.70213H16.0853H10.7236L13.379 4.9532L16.0853 0.153198Z"
        fill="#E09600"
      />
      <path
        d="M10.7235 28.749L8.01714 24L5.36182 19.2511H10.7235H16.0852L13.3788 24L10.7235 28.749Z"
        fill="#FFA238"
      />
      <path
        d="M16.0853 19.2511L13.379 14.4511L10.7236 9.70215H16.0853H21.447L18.7407 14.4511L16.0853 19.2511Z"
        fill="#D46B00"
      />
      <path
        d="M5.3617 19.2511L2.65532 14.4511L0 9.70215H5.3617H10.7234L8.01702 14.4511L5.3617 19.2511Z"
        fill="#FFE970"
      />
      <path
        d="M5.3617 0.153198L8.01702 4.9532L10.7234 9.70213H5.3617H0L2.65532 4.9532L5.3617 0.153198Z"
        fill="#FFE970"
      />
      <path
        d="M10.7235 9.70213L8.01714 4.9532L5.36182 0.153198H10.7235H16.0852L13.3788 4.9532L10.7235 9.70213Z"
        fill="#FFE137"
      />
      <path
        d="M10.7235 9.70215L13.3788 14.4511L16.0852 19.2511H10.7235H5.36182L8.01714 14.4511L10.7235 9.70215Z"
        fill="#FF8900"
      />
      <path
        d="M21.4467 9.70215L24.102 14.4511L26.8084 19.2511H21.4467H16.085L18.7403 14.4511L21.4467 9.70215Z"
        fill="#B3600C"
      />
      <path
        d="M48.2553 19.2511L45.5489 14.4511L42.8936 9.70215H48.2553H53.617L50.9106 14.4511L48.2553 19.2511Z"
        fill="#40DFFA"
      />
      <path
        d="M48.2553 0.153198L50.9106 4.9532L53.617 9.70213H48.2553H42.8936L45.5489 4.9532L48.2553 0.153198Z"
        fill="#8AEFFF"
      />
      <path
        d="M37.5321 0.153198L40.1874 4.9532L42.8938 9.70213H37.5321H32.1704L34.8257 4.9532L37.5321 0.153198Z"
        fill="#40DFFA"
      />
      <path
        d="M42.8934 9.70213L40.1871 4.9532L37.5317 0.153198H42.8934H48.2551L45.5488 4.9532L42.8934 9.70213Z"
        fill="#8AEFFF"
      />
    </g>
    <g id="text">
      <path
        d="M119.132 38.8596H98.2978C98.3489 28.9532 98.2468 18.9957 98.2978
        9.08936H119.183V14.5532L103.557 14.4511L103.506 21.2936L118.825 21.3957L118.774
        26.6553L103.455 26.5532L103.404 33.2936L119.081 33.3957L119.132 38.8596Z"
      />
      <path
        d="M143.234 9.08936H148.902V38.8596H143.54L130.417
        18.8425V38.8596H125.055V9.08936H130.417L143.234 27.5745V9.08936Z"
      />
      <path
        d="M227.898 38.8596L219.472 29.0553H213.804V38.8596H208.443V9.08936C213.14
        9.08936 217.889 9.08936 222.638 9.08936C229.634 9.19148 233.311 13.9915 233.311
        19.1489C233.311 23.234 231.421 27.3702 225.753 28.4936L234.894 38.8596H227.898ZM213.804
        14.5021V24.0511H222.536C226.111 24.0511 227.643 21.7021 227.643 19.3021C227.643 16.9021 226.111
        14.5532 222.587 14.5021H213.804Z"
      />
      <path
        d="M89.3106 9.08936L80.4255 32.2213L71.4894
        9.08936H65.5149L77.4128 38.8596H83.3872L95.2851 9.08936H89.3106Z"
      />
      <path
        d="M175.711 38.8596H154.877C154.928 28.9532 154.825 18.9957
        154.877 9.08936H175.762V14.5532L160.136 14.4511L160.085 21.2936L175.404
        21.3957L175.353 26.6553L160.034 26.5532L159.983 33.2936L175.66 33.3957L175.711 38.8596Z"
      />
      <path
        d="M202.519 38.8596H181.685C181.736 28.9532 181.634 18.9957
        181.685 9.08936H202.57V14.5532L186.894 14.4511V21.3447L202.213
        21.4468L202.162 26.7064L186.843 26.6042L186.792 33.3447L202.468
        33.4468L202.519 38.8596Z"
      />
    </g>
  </defs>
  <g id="multicolor-onLight">
    <use href="#multicolor"/>
    <use href="#text" fill="black"/>
  </g>
  <g id="multicolor-onDark">
    <use href="#multicolor"/>
    <use href="#text" fill="white"/>
  </g>
  <g id="singlecolor-onLight" fill="black">
    <use href="#singlecolor"/>
    <use href="#text"/>
  </g>
  <g id="singlecolor-onDark" fill="white">
    <use href="#singlecolor"/>
    <use href="#text"/>
  </g>
</svg>
