<svg
  xmlns="http://www.w3.org/2000/svg"
  viewBox="0 0 96 96"
  fill="none"
>
  <defs>
    <style>:root>g{display:none;}:root>g:target{display:inline;}</style>
    <path id="singlecolor"
          d="M94.9588 20.6182L86.2126 5.20824V5H84.9631H68.5119H66.6377L66.4295
      5.20824L56.8503 22.0759L47.8959 38.1106L38.9414 22.0759L30.1952 6.4577L29.3623
      5H29.154H28.1128H11.8698H9.99566H9.78742L8.95445 6.4577L0.832972 20.8265L0.208243
      22.0759L0 22.4924L0.624729 23.7419L9.57918 39.5683L19.1584 56.436L28.7375 73.3037L37.4837
      88.9219L38.3167 90.3796H38.5249H39.3579H57.4751H57.6833L58.7245 88.5054L67.2625 73.3037L76.8417
      56.436L86.4208 39.5683L95.3753 23.7419L95.7918 22.7006L96 22.4924L94.9588 20.6182ZM84.9631
      6.04121L76.4252 21.243L67.8872 6.04121H84.9631ZM20.4078 22.9089H37.4837L28.9458 38.1106L20.4078
      22.9089ZM28.1128 38.7354H11.0369L19.5748 23.5336L28.1128 38.7354ZM37.692 55.603H20.4078L28.9458
      40.4013L37.692 55.603ZM29.987 39.7766H47.0629L39.9827 52.2711L38.5249 54.9783L29.987 39.7766ZM38.5249
      57.0607L47.0629 72.2625H29.987L38.5249 57.0607ZM39.3579 56.6442H56.4338L47.8959 71.846L39.3579
      56.6442ZM57.4751 57.0607L66.013 72.2625H48.9371L57.4751 57.0607ZM56.2256 52.8959L48.7289
      39.7766H65.8048L57.4751 54.9783L56.2256 52.8959ZM67.0542 40.4013L75.5922 55.603H58.308L67.0542
      40.4013ZM58.308 22.9089H75.384L66.846 38.1106L58.308 22.9089ZM76.4252 23.5336L84.9631
      38.7354H67.8872L76.4252 23.5336ZM67.0542 6.66594L75.5922 21.8677H58.308L67.0542
      6.66594ZM57.4751 23.5336L66.013 38.7354H48.9371L57.4751 23.5336ZM56.6421 55.603H39.5662L47.8959
      40.4013L56.6421 55.603ZM47.0629 38.7354H29.987L37.0672 26.2408L38.5249 23.5336L47.0629 38.7354ZM37.692
      21.8677H20.4078L27.4881 9.3731L28.9458 6.66594L37.692 21.8677ZM28.1128 6.04121L19.5748
      21.243L11.0369 6.04121H28.1128ZM9.99566 6.66594L18.7419 21.8677H1.4577L9.99566 6.66594ZM1.4577
      22.9089H18.7419L10.2039 38.1106L1.4577 22.9089ZM11.0369 39.7766H28.1128L19.5748 54.9783L11.0369
      39.7766ZM20.4078 56.6442H37.4837L28.9458 71.846L20.4078 56.6442ZM47.0629 73.5119L38.5249 88.7137L29.987
      73.5119H47.0629ZM39.3579 89.3384L47.8959 74.1367L56.4338 89.3384H39.3579ZM57.4751 88.7137L48.9371
      73.5119H66.013L57.4751 88.7137ZM67.0542 71.846L58.308 56.6442H75.384L67.0542 71.846ZM76.4252 54.9783L67.8872
      39.7766H84.9631L76.4252 54.9783ZM86.0043 38.1106L77.4664 22.9089H94.5423L86.0043 38.1106ZM77.2581
      21.8677L85.7961 6.66594L94.3341 21.8677H77.2581Z"
    />
    <g id="multicolor">
      <path
        d="M47.9999 68.2971L52.7542 76.8L57.5999 85.3943H47.9999H38.3999L43.1542 76.8L47.9999 68.2971Z"
        fill="#E64577"
      />
      <path
        d="M57.6 85.3943L52.7543 76.8L48 68.2971H57.6H67.2L62.3543 76.8L57.6 85.3943Z"
        fill="#D94E9C"
      />
      <path
        d="M57.6 51.2L62.3543 59.7943L67.2 68.2972H57.6H48L52.7543 59.7943L57.6 51.2Z"
        fill="#A8417B"
      />
      <path
        d="M67.2001 68.2972L62.3544 59.7943L57.6001 51.2H67.2001H76.8001L71.9544 59.7943L67.2001 68.2972Z"
        fill="#964E96"
      />
      <path
        d="M67.2001 34.1943L71.9544 42.6971L76.8001 51.2H67.2001H57.6001L62.3544 42.6971L67.2001 34.1943Z"
        fill="#4483CF"
      />
      <path
        d="M76.8 51.2L71.9542 42.6971L67.2 34.1943H76.8H86.4L81.5542 42.6971L76.8 51.2Z"
        fill="#0096D6"
      />
      <path
        d="M76.8 17.0971L81.5542 25.6L86.4 34.1943H76.8H67.2L71.9542 25.6L76.8 17.0971Z"
        fill="#2AC5E0"
      />
      <path
        d="M47.9999 34.1943L52.7542 42.6971L57.5999 51.2H47.9999H38.3999L43.1542 42.6971L47.9999 34.1943Z"
        fill="#A8417B"
      />
      <path
        d="M57.6 17.0971L62.3543 25.6L67.2 34.1943H57.6H48L52.7543 25.6L57.6 17.0971Z"
        fill="#4483CF"
      />
      <path
        d="M67.2001 34.1943L62.3544 25.6L57.6001 17.0971H67.2001H76.8001L71.9544 25.6L67.2001 34.1943Z"
        fill="#269EB3"
      />
      <path
        d="M57.6 51.2L52.7543 42.6971L48 34.1943H57.6H67.2L62.3543 42.6971L57.6 51.2Z"
        fill="#3367A6"
      />
      <path
        d="M38.3998 85.3943L33.5541 76.8L28.7998 68.2971H38.3998H47.9998L43.1541 76.8L38.3998 85.3943Z"
        fill="#FA6996"
      />
      <path
        d="M38.3998 51.2L43.1541 59.7943L47.9998 68.2972H38.3998H28.7998L33.5541 59.7943L38.3998 51.2Z"
        fill="#E64577"
      />
      <path
        d="M47.9999 68.2972L43.1542 59.7943L38.3999 51.2H47.9999H57.5999L52.7542 59.7943L47.9999 68.2972Z"
        fill="#7F345F"
      />
      <path
        d="M28.8002 68.2972L23.9545 59.7943L19.2002 51.2H28.8002H38.4002L33.5545 59.7943L28.8002 68.2972Z"
        fill="#FF948A"
      />
      <path
        d="M28.8002 34.1943L33.5545 42.6971L38.4002 51.2H28.8002H19.2002L23.9545 42.6971L28.8002 34.1943Z"
        fill="#FF6445"
      />
      <path
        d="M38.3998 51.2L33.5541 42.6971L28.7998 34.1943H38.3998H47.9998L43.1541 42.6971L38.3998 51.2Z"
        fill="#CC2C00"
      />
      <path
        d="M28.8002 0L33.5545 8.59429L38.4002 17.0971H28.8002H19.2002L23.9545 8.59429L28.8002 0Z"
        fill="#E09600"
      />
      <path
        d="M19.2001 51.2L14.3544 42.6971L9.6001 34.1943H19.2001H28.8001L23.9544 42.6971L19.2001 51.2Z"
        fill="#FFA238"
      />
      <path
        d="M28.8002 34.1943L23.9545 25.6L19.2002 17.0971H28.8002H38.4002L33.5545 25.6L28.8002 34.1943Z"
        fill="#D46B00"
      />
      <path
        d="M9.6 34.1943L4.75429 25.6L0 17.0971H9.6H19.2L14.3543 25.6L9.6 34.1943Z"
        fill="#FFE970"
      />
      <path
        d="M9.6 0L14.3543 8.59429L19.2 17.0971H9.6H0L4.75429 8.59429L9.6 0Z"
        fill="#FFE970"
      />
      <path
        d="M19.2001 17.0971L14.3544 8.59429L9.6001 0H19.2001H28.8001L23.9544 8.59429L19.2001 17.0971Z"
        fill="#FFE137"
      />
      <path
        d="M19.2001 17.0971L23.9544 25.6L28.8001 34.1943H19.2001H9.6001L14.3544 25.6L19.2001 17.0971Z"
        fill="#FF8900"
      />
      <path
        d="M38.3998 17.0971L43.1541 25.6L47.9998 34.1943H38.3998H28.7998L33.5541 25.6L38.3998 17.0971Z"
        fill="#B3600C"
      />
      <path
        d="M86.4 34.1943L81.5543 25.6L76.8 17.0971H86.4H96L91.1543 25.6L86.4 34.1943Z"
        fill="#40DFFA"
      />
      <path
        d="M86.4 0L91.1543 8.59429L96 17.0971H86.4H76.8L81.5543 8.59429L86.4 0Z"
        fill="#8AEFFF"
      />
      <path
        d="M67.2001 0L71.9544 8.59429L76.8001 17.0971H67.2001H57.6001L62.3544 8.59429L67.2001 0Z"
        fill="#40DFFA"
      />
      <path
        d="M76.8 17.0971L71.9542 8.59429L67.2 0H76.8H86.4L81.5542 8.59429L76.8 17.0971Z"
        fill="#8AEFFF"
      />
    </g>
  </defs>
  <g id="multicolor-onLight">
    <use href="#multicolor"/>
  </g>
  <g id="multicolor-onDark">
    <use href="#multicolor"/>
  </g>
  <g id="singlecolor-onLight" fill="black">
    <use href="#singlecolor"/>
  </g>
  <g id="singlecolor-onDark" fill="white">
    <use href="#singlecolor"/>
  </g>
</svg>
