<svg
  xmlns="http://www.w3.org/2000/svg"
  viewBox="0 0 125 24"
  fill="none"
>
  <defs>
    <style>:root>g{display:none;}:root>g:target{display:inline;}</style>
    <g id="hp-instant-ink">
      <path
        d="M3.61998 23.39C3.61998 23.51 3.55998 23.57 3.43998 23.57H0.90998C0.78998 23.57 0.72998 23.51 0.72998 23.39L0.81998 12.58L0.72998 7.93C0.72998 7.81 0.78998 7.75 0.90998 7.75H3.43998C3.55998 7.75 3.61998 7.81 3.61998 7.93L3.55998 12.59L3.61998 23.39Z"
      />
      <path
        d="M8.98003 23.39C8.98003 23.51 8.92003 23.57 8.80003 23.57H6.27003C6.15003 23.57 6.09003 23.51 6.09003 23.39L6.15003 16.37L6.12003 7.89998C6.12003 7.77998 6.18003 7.71998 6.30003 7.71998H8.67003C8.79003 7.71998 8.85003 7.77998 8.85003 7.89998L8.80003 10.49C9.75003 8.85998 11.54 7.34998 14.07 7.34998C17.33 7.34998 19.4 9.50998 19.4 13.66V16.8L19.46 23.39C19.46 23.51 19.4 23.57 19.28 23.57H16.79C16.67 23.57 16.61 23.51 16.61 23.39L16.64 16.8V13.75C16.64 10.79 15.32 9.46998 13.31 9.46998C11.25 9.46998 9.55003 11.16 8.94003 14.24V16.8L8.98003 23.39Z"
      />
      <path
        d="M21.02 18.28C21.02 18.16 21.08 18.1 21.2 18.1H23.54C23.63 18.1 23.72 18.16 23.72 18.28C23.78 20.9 25.32 22.07 28.19 22.07C30.53 22.07 32.07 21.05 32.07 19.24C32.07 14.96 21.35 18.38 21.35 12C21.35 8.98 23.88 7.38 27.63 7.38C31.36 7.38 34.07 8.95001 34.25 12.31C34.25 12.43 34.19 12.49 34.07 12.49H31.8C31.71 12.49 31.62 12.43 31.62 12.31C31.44 10.18 29.93 9.2 27.62 9.2C25.46 9.2 24.08 10.03 24.08 11.85C24.08 15.85 34.77 12.4 34.77 19.06C34.77 22.14 31.91 23.93 28.06 23.93C23.7 23.92 21.12 22.04 21.02 18.28Z"
      />
      <path
        d="M43.97 7.72C44.06 7.72 44.15 7.78 44.15 7.9V9.6C44.15 9.72 44.09 9.78 43.97 9.78H40.24V19.17C40.24 21.14 40.89 21.73 42.21 21.73C42.86 21.73 43.47 21.64 43.9 21.55C44.05 21.52 44.12 21.58 44.12 21.7V23.27C44.12 23.36 44.06 23.42 43.97 23.45C43.32 23.63 42.49 23.85 41.72 23.85C39.41 23.85 37.44 22.68 37.44 19.23L37.47 9.77H35.59C35.47 9.77 35.41 9.71 35.41 9.59V7.9C35.41 7.78 35.47 7.72 35.59 7.72H37.47L37.44 3.93C37.44 3.81 37.5 3.75 37.62 3.75H40.08C40.2 3.75 40.26 3.81 40.26 3.93L40.23 7.72H43.97Z"
      />
      <path
        d="M55.89 7.89997C55.89 7.77997 55.95 7.71997 56.07 7.71997H58.53C58.65 7.71997 58.71 7.77997 58.71 7.89997L58.65 15.48L58.71 23.4C58.71 23.52 58.65 23.58 58.53 23.58H56.07C55.95 23.58 55.89 23.52 55.89 23.4L55.95 21.09C54.9 22.85 53.18 23.89 50.9 23.89C46.62 23.89 44.34 20.29 44.34 15.7C44.34 11.11 46.77 7.40997 50.96 7.40997C53.18 7.40997 54.9 8.35997 55.95 10.12L55.89 7.89997ZM56.04 15.79C56.07 11.72 54.47 9.37997 51.67 9.34997C48.62 9.31997 47.2 11.88 47.2 15.48C47.2 19.3 48.62 21.95 51.6 21.92C54.35 21.92 56.01 19.85 56.04 15.79Z"
      />
      <path
        d="M63.81 23.39C63.81 23.51 63.75 23.57 63.63 23.57H61.1C60.98 23.57 60.92 23.51 60.92 23.39L60.98 16.37L60.94 7.89998C60.94 7.77998 61 7.71998 61.12 7.71998H63.49C63.61 7.71998 63.67 7.77998 63.67 7.89998L63.61 10.49C64.56 8.85998 66.35 7.34998 68.88 7.34998C72.14 7.34998 74.21 9.50998 74.21 13.66V16.8L74.27 23.39C74.27 23.51 74.21 23.57 74.09 23.57H71.6C71.48 23.57 71.42 23.51 71.42 23.39L71.45 16.8V13.75C71.45 10.79 70.13 9.46998 68.12 9.46998C66.06 9.46998 64.36 11.16 63.75 14.24V16.8L63.81 23.39Z"
      />
      <path
        d="M84.01 7.72C84.1 7.72 84.19 7.78 84.19 7.9V9.6C84.19 9.72 84.13 9.78 84.01 9.78H80.28V19.17C80.28 21.14 80.93 21.73 82.25 21.73C82.9 21.73 83.51 21.64 83.94 21.55C84.09 21.52 84.16 21.58 84.16 21.7V23.27C84.16 23.36 84.1 23.42 84.01 23.45C83.36 23.63 82.53 23.85 81.76 23.85C79.45 23.85 77.48 22.68 77.48 19.23L77.51 9.77H75.63C75.51 9.77 75.45 9.71 75.45 9.59V7.9C75.45 7.78 75.51 7.72 75.63 7.72H77.51L77.48 3.93C77.48 3.81 77.54 3.75 77.66 3.75H80.12C80.24 3.75 80.3 3.81 80.3 3.93L80.27 7.72H84.01Z"
      />
      <path
        d="M99.84 23.39C99.84 23.51 99.78 23.57 99.66 23.57H97.13C97.01 23.57 96.95 23.51 96.95 23.39L97.01 16.37L96.98 7.89998C96.98 7.77998 97.04 7.71998 97.16 7.71998H99.53C99.65 7.71998 99.71 7.77998 99.71 7.89998L99.65 10.49C100.6 8.85998 102.39 7.34998 104.92 7.34998C108.18 7.34998 110.25 9.50998 110.25 13.66V16.8L110.31 23.39C110.31 23.51 110.25 23.57 110.13 23.57H107.64C107.52 23.57 107.46 23.51 107.46 23.39L107.49 16.8V13.75C107.49 10.79 106.17 9.46998 104.16 9.46998C102.1 9.46998 100.4 11.16 99.79 14.24V16.8L99.84 23.39Z"
      />
      <path
        d="M121.4 7.72002H124.14C124.29 7.72002 124.32 7.81002 124.23 7.94002L119.06 13.45L124.97 23.37C125.03 23.49 124.97 23.59 124.85 23.59H122.02C121.93 23.59 121.84 23.56 121.8 23.47L120.48 21.1L117.06 15.43L115.12 17.62L115.15 23.41C115.15 23.53 115.09 23.59 114.97 23.59H112.54C112.42 23.59 112.36 23.53 112.36 23.41L112.42 12.91L112.35 2.20002C112.35 2.08002 112.41 2.02002 112.53 2.02002H114.96C115.08 2.02002 115.14 2.08002 115.14 2.20002L115.08 12.83V14.59L121.18 7.81002C121.25 7.72002 121.31 7.72002 121.4 7.72002Z"
      />
      <path
        d="M2.02 4.04C3.13562 4.04 4.04 3.13562 4.04 2.02C4.04 0.904385 3.13562 0 2.02 0C0.904385 0 0 0.904385 0 2.02C0 3.13562 0.904385 4.04 2.02 4.04Z"
      />
      <path
        d="M94.45 23.39C94.45 23.51 94.39 23.57 94.27 23.57H91.74C91.62 23.57 91.56 23.51 91.56 23.39L91.65 12.58L91.56 7.91999C91.56 7.79999 91.62 7.73999 91.74 7.73999H94.27C94.39 7.73999 94.45 7.79999 94.45 7.91999L94.39 12.58L94.45 23.39Z"
      />
      <path
        d="M92.85 4.04C93.9656 4.04 94.87 3.13562 94.87 2.02C94.87 0.904385 93.9656 0 92.85 0C91.7344 0 90.83 0.904385 90.83 2.02C90.83 3.13562 91.7344 4.04 92.85 4.04Z"
      />
    </g>
    <g id="hp-instant-ink-dot1">
      <path
        d="M8.93998 4.04C10.0556 4.04 10.96 3.13562 10.96 2.02C10.96 0.904385 10.0556 0 8.93998 0C7.82437 0 6.91998 0.904385 6.91998 2.02C6.91998 3.13562 7.82437 4.04 8.93998 4.04Z"
      />
    </g>
    <g id="hp-instant-ink-dot2">
      <path
        d="M15.85 4.04C16.9656 4.04 17.87 3.13562 17.87 2.02C17.87 0.904385 16.9656 0 15.85 0C14.7344 0 13.83 0.904385 13.83 2.02C13.83 3.13562 14.7344 4.04 15.85 4.04Z"
      />
    </g>
    <g id="hp-instant-ink-dot3">
      <path
        d="M22.77 4.04C23.8856 4.04 24.79 3.13562 24.79 2.02C24.79 0.904385 23.8856 0 22.77 0C21.6544 0 20.75 0.904385 20.75 2.02C20.75 3.13562 21.6544 4.04 22.77 4.04Z"
      />
    </g>
    <g id="hp-instant-ink-dots">
      <use href="#hp-instant-ink-dot1" />
      <use href="#hp-instant-ink-dot2" />
      <use href="#hp-instant-ink-dot3" />
    </g>
    <g id="hp-instant-ink-dots-color">
      <use href="#hp-instant-ink-dot1" fill="#5BA8DF"/>
      <use href="#hp-instant-ink-dot2" fill="#C83285"/>
      <use href="#hp-instant-ink-dot3" fill="#F4D112"/>
    </g>
  </defs>
  <g id="multicolor-onLight">
    <use href="#hp-instant-ink" fill="black"/>
    <use href="#hp-instant-ink-dots-color" />
  </g>
  <g id="multicolor-onDark">
    <use href="#hp-instant-ink" fill="white"/>
    <use href="#hp-instant-ink-dots-color" />
  </g>
  <g id="singlecolor-onLight" fill="black">
    <use href="#hp-instant-ink"/>
    <use href="#hp-instant-ink-dots" />
  </g>
  <g id="singlecolor-onDark" fill="white">
    <use href="#hp-instant-ink"/>
    <use href="#hp-instant-ink-dots" />
  </g>
</svg>
