<svg xmlns="http://www.w3.org/2000/svg"
     viewBox="0 0 61 36"
     fill="none"
>
  <defs>
    <style>:root>g{display:none;}:root>g:target{display:inline;}</style>
    <g id="hp-instant-ink">
      <path
        d="M3.34999 17.5C3.34999 17.59 3.27999 17.66 3.18999 17.66H1.39999C1.30999 17.66 1.23999 17.59 1.23999 17.5L1.27999 11.7L1.23999 6.29C1.23999 6.2 1.30999 6.13 1.39999 6.13H3.18999C3.27999 6.13 3.34999 6.2 3.34999 6.29L3.30999 11.7L3.34999 17.5Z"
      />
      <path
        d="M6.93001 17.5C6.93001 17.59 6.86001 17.66 6.77001 17.66H4.98001C4.89001 17.66 4.82001 17.59 4.82001 17.5L4.89001 12.42L4.85001 6.29C4.85001 6.2 4.92001 6.13 5.01001 6.13H6.71001C6.80001 6.13 6.87001 6.2 6.87001 6.29L6.80001 8.14999C7.52001 6.95999 8.81001 5.87 10.65 5.87C13.02 5.87 14.52 7.44 14.52 10.46V12.74L14.54 17.51C14.54 17.6 14.47 17.67 14.38 17.67H12.61C12.52 17.67 12.45 17.6 12.45 17.51L12.49 12.74V10.52C12.49 8.37 11.51 7.41 10.07 7.41C8.55001 7.41 7.34001 8.64 6.89001 10.88V12.74L6.91001 17.51L6.93001 17.5Z"
      />
      <path
        d="M15.45 13.81C15.45 13.7 15.52 13.65 15.61 13.65H17.29C17.38 13.65 17.45 13.69 17.45 13.81C17.52 15.71 18.61 16.56 20.67 16.56C22.37 16.56 23.49 15.82 23.49 14.5C23.49 11.39 15.73 13.87 15.73 9.24C15.73 7.05 17.56 5.88 20.29 5.88C23.02 5.88 24.94 7.02 25.08 9.44C25.08 9.53 25.01 9.60001 24.92 9.60001H23.33C23.24 9.60001 23.17 9.56 23.17 9.44C23.04 7.92 21.94 7.2 20.26 7.2C18.67 7.2 17.66 7.8 17.66 9.12C17.66 12.03 25.45 9.52 25.45 14.36C25.45 16.6 23.35 17.9 20.57 17.9C17.48 17.9 15.51 16.54 15.45 13.81Z"
      />
      <path
        d="M31.83 6.14C31.92 6.14 31.99 6.21 31.99 6.3V7.49C31.99 7.58 31.92 7.65 31.83 7.65H29.14V14.47C29.14 15.9 29.61 16.33 30.59 16.33C31.04 16.33 31.49 16.26 31.8 16.2C31.91 16.18 31.98 16.22 31.98 16.33V17.43C31.98 17.52 31.94 17.59 31.85 17.61C31.38 17.72 30.78 17.88 30.22 17.88C28.54 17.88 27.11 17.03 27.11 14.52L27.13 7.65H25.79C25.7 7.65 25.63 7.58 25.63 7.49V6.3C25.63 6.21 25.7 6.14 25.79 6.14H27.13L27.09 3.41C27.09 3.32 27.16 3.25 27.25 3.25H29.02C29.11 3.25 29.18 3.32 29.18 3.41L29.16 6.14H31.85H31.83Z"
      />
      <path
        d="M40.29 6.28997C40.29 6.19997 40.36 6.12997 40.45 6.12997H42.2C42.29 6.12997 42.36 6.19997 42.36 6.28997L42.32 11.77L42.36 17.5C42.36 17.59 42.29 17.66 42.2 17.66H40.48C40.39 17.66 40.32 17.59 40.32 17.5L40.36 15.8C39.58 17.1 38.35 17.88 36.67 17.88C33.56 17.88 31.9 15.26 31.9 11.93C31.9 8.59997 33.67 5.90997 36.71 5.90997C38.32 5.90997 39.57 6.59997 40.34 7.87997L40.3 6.28997H40.29ZM40.4 12C40.42 9.04997 39.26 7.34997 37.22 7.31997C35 7.29997 33.98 9.14997 33.98 11.77C33.98 14.54 35.01 16.47 37.18 16.45C39.17 16.45 40.38 14.95 40.4 12Z"
      />
      <path
        d="M45.84 17.5C45.84 17.59 45.77 17.66 45.68 17.66H43.89C43.8 17.66 43.73 17.59 43.73 17.5L43.8 12.42L43.76 6.29C43.76 6.2 43.83 6.13 43.92 6.13H45.62C45.71 6.13 45.78 6.2 45.78 6.29L45.71 8.14999C46.43 6.95999 47.72 5.87 49.56 5.87C51.93 5.87 53.43 7.44 53.43 10.46V12.74L53.45 17.51C53.45 17.6 53.38 17.67 53.29 17.67H51.52C51.43 17.67 51.36 17.6 51.36 17.51L51.4 12.74V10.52C51.4 8.37 50.42 7.41 48.98 7.41C47.46 7.41 46.25 8.64 45.8 10.88V12.74L45.82 17.51L45.84 17.5Z"
      />
      <path
        d="M60.27 6.14C60.36 6.14 60.43 6.21 60.43 6.3V7.49C60.43 7.58 60.36 7.65 60.27 7.65H57.58V14.47C57.58 15.9 58.05 16.33 59.03 16.33C59.48 16.33 59.93 16.26 60.24 16.2C60.35 16.18 60.42 16.22 60.42 16.33V17.43C60.42 17.52 60.38 17.59 60.29 17.61C59.82 17.72 59.22 17.88 58.66 17.88C56.98 17.88 55.55 17.03 55.55 14.52L55.57 7.65H54.23C54.14 7.65 54.07 7.58 54.07 7.49V6.3C54.07 6.21 54.14 6.14 54.23 6.14H55.57L55.53 3.41C55.53 3.32 55.6 3.25 55.69 3.25H57.46C57.55 3.25 57.62 3.32 57.62 3.41L57.6 6.14H60.29H60.27Z"
      />
      <path
        d="M3.34999 35.84C3.34999 35.93 3.27999 36 3.18999 36H1.39999C1.30999 36 1.23999 35.93 1.23999 35.84L1.27999 30.04L1.23999 24.62C1.23999 24.53 1.30999 24.46 1.39999 24.46H3.18999C3.27999 24.46 3.34999 24.53 3.34999 24.62L3.30999 30.04L3.34999 35.84Z"
      />
      <path
        d="M6.92897 35.84C6.92897 35.93 6.85897 36 6.76897 36H4.97897C4.88897 36 4.81897 35.93 4.81897 35.84L4.88897 30.76L4.84897 24.63C4.84897 24.54 4.91897 24.47 5.00897 24.47H6.70897C6.79897 24.47 6.86897 24.54 6.86897 24.63L6.79897 26.49C7.51897 25.3 8.80897 24.21 10.649 24.21C13.019 24.21 14.519 25.78 14.519 28.8V31.08L14.539 35.85C14.539 35.94 14.469 36.01 14.379 36.01H12.609C12.519 36.01 12.449 35.94 12.449 35.85L12.489 31.08V28.86C12.489 26.71 11.509 25.75 10.069 25.75C8.54897 25.75 7.33897 26.98 6.88897 29.22V31.08L6.90897 35.85L6.92897 35.84Z"
      />
      <path
        d="M22.43 24.48H24.35C24.48 24.48 24.53 24.57 24.44 24.68L20.7 28.64L24.97 35.82C25.04 35.91 24.97 36 24.86 36H22.87C22.8 36 22.71 35.98 22.67 35.89L21.73 34.19L19.27 30.1L17.84 31.69L17.88 35.85C17.88 35.94 17.81 36.01 17.72 36.01H15.97C15.88 36.01 15.81 35.94 15.81 35.85L15.88 28.24L15.81 20.5C15.81 20.41 15.88 20.34 15.97 20.34H17.72C17.81 20.34 17.88 20.41 17.88 20.5L17.81 28.2V29.48L22.24 24.58C22.28 24.51 22.35 24.49 22.42 24.49L22.43 24.48Z"
      />
      <path
        d="M2.20998 3.35001C3.12998 3.35001 3.87998 2.59647 3.87998 1.68001C3.87998 0.763546 3.12998 0.0100098 2.20998 0.0100098C1.28998 0.0100098 0.539978 0.763546 0.539978 1.68001C0.539978 2.59647 1.28998 3.35001 2.20998 3.35001Z"
      />
      <path
        d="M2.20998 22.42C3.12998 22.42 3.87998 21.6665 3.87998 20.75C3.87998 19.8336 3.12998 19.08 2.20998 19.08C1.28998 19.08 0.539978 19.8336 0.539978 20.75C0.539978 21.6665 1.28998 22.42 2.20998 22.42Z"
      />
    </g>
    <g id="hp-instant-ink-dot1">
      <path
        d="M6.57002 3.35001C7.49002 3.35001 8.24002 2.59647 8.24002 1.68001C8.24002 0.763546 7.49002 0.0100098 6.57002 0.0100098C5.65002 0.0100098 4.90002 0.763546 4.90002 1.68001C4.90002 2.59647 5.65002 3.35001 6.57002 3.35001Z"
      />
    </g>
    <g id="hp-instant-ink-dot2">
      <path
        d="M10.92 3.35001C11.84 3.35001 12.59 2.59647 12.59 1.68001C12.59 0.763546 11.84 0.0100098 10.92 0.0100098C10 0.0100098 9.25 0.763546 9.25 1.68001C9.25 2.59647 10 3.35001 10.92 3.35001Z"
      />
    </g>
    <g id="hp-instant-ink-dot3">
      <path
        d="M15.28 3.35001C16.2 3.35001 16.95 2.59647 16.95 1.68001C16.95 0.763546 16.2 0.0100098 15.28 0.0100098C14.36 0.0100098 13.61 0.763546 13.61 1.68001C13.61 2.59647 14.36 3.35001 15.28 3.35001Z"
      />
    </g>
    <g id="hp-instant-ink-dots">
      <use href="#hp-instant-ink-dot1"/>
      <use href="#hp-instant-ink-dot2"/>
      <use href="#hp-instant-ink-dot3"/>
    </g>
    <g id="hp-instant-ink-dots-color">
      <use href="#hp-instant-ink-dot1" fill="#12AAE2"/>
      <use href="#hp-instant-ink-dot2" fill="#E94093"/>
      <use href="#hp-instant-ink-dot3" fill="#FBD900"/>
    </g>
  </defs>
  <g id="multicolor-onLight">
    <use href="#hp-instant-ink" fill="black"/>
    <use href="#hp-instant-ink-dots-color"/>
  </g>
  <g id="multicolor-onDark">
    <use href="#hp-instant-ink" fill="white"/>
    <use href="#hp-instant-ink-dots-color"/>
  </g>
  <g id="singlecolor-onLight" fill="black">
    <use href="#hp-instant-ink"/>
    <use href="#hp-instant-ink-dots"/>
  </g>
  <g id="singlecolor-onDark" fill="white">
    <use href="#hp-instant-ink"/>
    <use href="#hp-instant-ink-dots"/>
  </g>
</svg>
