<svg
  xmlns="http://www.w3.org/2000/svg"
  viewBox="0 0 194 31"
  fill="none"
>
  <defs>
    <style>:root>g{display:none;}:root>g:target{display:inline;}</style>
    <g id="hp-instant-ink">
      <path
        d="M37.93 30.08C37.93 30.24 37.85 30.32 37.69 30.32H34.44C34.28 30.32 34.2 30.24 34.2 30.08L34.32 16.18L34.2 10.19C34.2 10.03 34.28 9.95001 34.44 9.95001H37.69C37.85 9.95001 37.93 10.03 37.93 10.19L37.85 16.18L37.93 30.08Z"
      />
      <path
        d="M44.83 30.08C44.83 30.24 44.75 30.32 44.59 30.32H41.34C41.18 30.32 41.1 30.24 41.1 30.08L41.18 21.05L41.14 10.16C41.14 10 41.22 9.92001 41.38 9.92001H44.43C44.59 9.92001 44.67 10 44.67 10.16L44.59 13.49C45.82 11.39 48.11 9.45001 51.36 9.45001C55.56 9.45001 58.21 12.22 58.21 17.57V21.61L58.29 30.08C58.29 30.24 58.21 30.32 58.05 30.32H54.84C54.68 30.32 54.6 30.24 54.6 30.08L54.64 21.61V17.69C54.64 13.89 52.94 12.19 50.36 12.19C47.71 12.19 45.53 14.37 44.74 18.33V21.62L44.83 30.08Z"
      />
      <path
        d="M60.31 23.51C60.31 23.35 60.39 23.27 60.55 23.27H63.56C63.68 23.27 63.8 23.35 63.8 23.51C63.88 26.88 65.86 28.38 69.54 28.38C72.55 28.38 74.53 27.07 74.53 24.74C74.53 19.24 60.75 23.63 60.75 15.43C60.75 11.55 64 9.48999 68.83 9.48999C73.62 9.48999 77.11 11.51 77.34 15.83C77.34 15.99 77.26 16.07 77.1 16.07H74.17C74.05 16.07 73.93 15.99 73.93 15.83C73.69 13.1 71.75 11.83 68.78 11.83C66.01 11.83 64.23 12.9 64.23 15.24C64.23 20.39 77.97 15.95 77.97 24.51C77.97 28.47 74.29 30.77 69.34 30.77C63.76 30.75 60.43 28.34 60.31 23.51Z"
      />
      <path
        d="M89.81 9.92C89.93 9.92 90.05 10 90.05 10.16V12.34C90.05 12.5 89.97 12.58 89.81 12.58H85.02V24.66C85.02 27.19 85.85 27.95 87.55 27.95C88.38 27.95 89.17 27.83 89.73 27.71C89.93 27.67 90.01 27.75 90.01 27.91V29.93C90.01 30.05 89.93 30.13 89.81 30.17C88.98 30.41 87.91 30.68 86.92 30.68C83.95 30.68 81.42 29.18 81.42 24.74L81.46 12.58H79.04C78.88 12.58 78.8 12.5 78.8 12.34V10.16C78.8 10 78.88 9.92 79.04 9.92H81.46L81.42 5.05C81.42 4.89 81.5 4.81 81.66 4.81H84.83C84.99 4.81 85.07 4.89 85.07 5.05L85.03 9.92H89.81Z"
      />
      <path
        d="M105.14 10.16C105.14 10 105.22 9.92003 105.38 9.92003H108.55C108.71 9.92003 108.79 10 108.79 10.16L108.71 19.9L108.79 30.08C108.79 30.24 108.71 30.32 108.55 30.32H105.38C105.22 30.32 105.14 30.24 105.14 30.08L105.22 27.11C103.87 29.37 101.66 30.71 98.73 30.71C93.23 30.71 90.29 26.08 90.29 20.18C90.29 14.28 93.42 9.53003 98.8 9.53003C101.65 9.53003 103.87 10.76 105.22 13.01L105.14 10.16ZM105.34 20.3C105.38 15.07 103.32 12.06 99.72 12.02C95.8 11.98 93.98 15.27 93.98 19.9C93.98 24.81 95.8 28.22 99.64 28.18C103.16 28.18 105.3 25.53 105.34 20.3Z"
      />
      <path
        d="M115.32 30.08C115.32 30.24 115.24 30.32 115.08 30.32H111.83C111.67 30.32 111.59 30.24 111.59 30.08L111.67 21.05L111.63 10.16C111.63 10 111.71 9.92001 111.87 9.92001H114.92C115.08 9.92001 115.16 10 115.16 10.16L115.08 13.49C116.31 11.39 118.6 9.45001 121.85 9.45001C126.05 9.45001 128.7 12.22 128.7 17.57V21.61L128.78 30.08C128.78 30.24 128.7 30.32 128.54 30.32H125.33C125.17 30.32 125.09 30.24 125.09 30.08L125.13 21.61V17.69C125.13 13.89 123.43 12.19 120.85 12.19C118.2 12.19 116.02 14.37 115.23 18.33V21.62L115.32 30.08Z"
      />
      <path
        d="M141.3 9.92C141.42 9.92 141.54 10 141.54 10.16V12.34C141.54 12.5 141.46 12.58 141.3 12.58H136.51V24.66C136.51 27.19 137.34 27.95 139.04 27.95C139.87 27.95 140.66 27.83 141.22 27.71C141.42 27.67 141.5 27.75 141.5 27.91V29.93C141.5 30.05 141.42 30.13 141.3 30.17C140.47 30.41 139.4 30.68 138.41 30.68C135.44 30.68 132.91 29.18 132.91 24.74L132.95 12.58H130.53C130.37 12.58 130.29 12.5 130.29 12.34V10.16C130.29 10 130.37 9.92 130.53 9.92H132.95L132.91 5.05C132.91 4.89 132.99 4.81 133.15 4.81H136.32C136.48 4.81 136.56 4.89 136.56 5.05L136.52 9.92H141.3Z"
      />
      <path
        d="M161.65 30.08C161.65 30.24 161.57 30.32 161.41 30.32H158.16C158 30.32 157.92 30.24 157.92 30.08L158 21.05L157.96 10.16C157.96 10 158.04 9.92001 158.2 9.92001H161.25C161.41 9.92001 161.49 10 161.49 10.16L161.41 13.49C162.64 11.39 164.93 9.45001 168.18 9.45001C172.38 9.45001 175.03 12.22 175.03 17.57V21.61L175.11 30.08C175.11 30.24 175.03 30.32 174.87 30.32H171.66C171.5 30.32 171.42 30.24 171.42 30.08L171.46 21.61V17.69C171.46 13.89 169.76 12.19 167.18 12.19C164.53 12.19 162.35 14.37 161.56 18.33V21.62L161.65 30.08Z"
      />
      <path
        d="M189.38 9.91998H192.9C193.1 9.91998 193.14 10.04 193.02 10.2L186.37 17.29L193.97 30.04C194.05 30.2 193.97 30.32 193.81 30.32H190.17C190.05 30.32 189.93 30.28 189.89 30.16L188.19 27.11L183.79 19.82L181.3 22.63L181.34 30.08C181.34 30.24 181.26 30.32 181.1 30.32H177.97C177.81 30.32 177.73 30.24 177.73 30.08L177.81 16.58L177.73 2.83998C177.73 2.67998 177.81 2.59998 177.97 2.59998H181.1C181.26 2.59998 181.34 2.67998 181.34 2.83998L181.26 16.5V18.76L189.1 10.05C189.18 9.91998 189.26 9.91998 189.38 9.91998Z"
      />
      <path
        d="M35.87 5.2C37.306 5.2 38.47 4.03594 38.47 2.6C38.47 1.16406 37.306 0 35.87 0C34.4341 0 33.27 1.16406 33.27 2.6C33.27 4.03594 34.4341 5.2 35.87 5.2Z"
      />
      <path
        d="M154.72 30.08C154.72 30.24 154.64 30.32 154.48 30.32H151.23C151.07 30.32 150.99 30.24 150.99 30.08L151.11 16.18L151 10.19C151 10.03 151.08 9.95001 151.24 9.95001H154.49C154.65 9.95001 154.73 10.03 154.73 10.19L154.65 16.18L154.72 30.08Z"
      />
      <path
        d="M12.97 30.75C12.84 30.75 12.71 30.75 12.58 30.74L15.23 23.45H18.88C19.52 23.45 20.22 22.96 20.44 22.36L23.32 14.46C23.79 13.17 23.05 12.11 21.67 12.11H16.61L9.96 30.4C4.25 29.04 0 23.91 0 17.78C0 11.83 4.01 6.82001 9.47 5.29001L2.85 23.46H5.6L9.11 13.82H11.18L7.67 23.46H10.42L13.69 14.47C14.16 13.18 13.42 12.12 12.05 12.12H9.73L12.38 4.83001C12.57 4.82001 12.77 4.82001 12.96 4.82001C20.12 4.82001 25.93 10.63 25.93 17.79C25.94 24.95 20.13 30.75 12.97 30.75ZM20.82 13.82H18.75L15.86 21.76H17.93L20.82 13.82Z"
      />
      <path
        d="M152.66 5.2C154.096 5.2 155.26 4.03594 155.26 2.6C155.26 1.16406 154.096 0 152.66 0C151.224 0 150.06 1.16406 150.06 2.6C150.06 4.03594 151.224 5.2 152.66 5.2Z"
      />
    </g>
    <g id="hp-instant-ink-dot1">
      <path
        d="M44.77 5.2C46.2059 5.2 47.37 4.03594 47.37 2.6C47.37 1.16406 46.2059 0 44.77 0C43.334 0 42.17 1.16406 42.17 2.6C42.17 4.03594 43.334 5.2 44.77 5.2Z"
      />
    </g>
    <g id="hp-instant-ink-dot2">
      <path
        d="M53.66 5.2C55.0959 5.2 56.26 4.03594 56.26 2.6C56.26 1.16406 55.0959 0 53.66 0C52.2241 0 51.06 1.16406 51.06 2.6C51.06 4.03594 52.2241 5.2 53.66 5.2Z"
      />
    </g>
    <g id="hp-instant-ink-dot3">
      <path
        d="M62.55 5.2C63.986 5.2 65.15 4.03594 65.15 2.6C65.15 1.16406 63.986 0 62.55 0C61.1141 0 59.95 1.16406 59.95 2.6C59.95 4.03594 61.1141 5.2 62.55 5.2Z"
      />
    </g>
    <g id="hp-instant-ink-dots">
      <use href="#hp-instant-ink-dot1"/>
      <use href="#hp-instant-ink-dot2"/>
      <use href="#hp-instant-ink-dot3"/>
    </g>
    <g id="hp-instant-ink-dots-color">
      <use href="#hp-instant-ink-dot1" fill="#5BA8DF"/>
      <use href="#hp-instant-ink-dot2" fill="#C83285"/>
      <use href="#hp-instant-ink-dot3" fill="#F4D112"/>
    </g>
  </defs>
  <g id="multicolor-onLight">
    <use href="#hp-instant-ink" fill="black"/>
    <use href="#hp-instant-ink-dots-color"/>
  </g>
  <g id="multicolor-onDark">
    <use href="#hp-instant-ink" fill="white"/>
    <use href="#hp-instant-ink-dots-color"/>
  </g>
  <g id="singlecolor-onLight" fill="black">
    <use href="#hp-instant-ink"/>
    <use href="#hp-instant-ink-dots"/>
  </g>
  <g id="singlecolor-onDark" fill="white">
    <use href="#hp-instant-ink"/>
    <use href="#hp-instant-ink-dots"/>
  </g>
</svg>
