<svg
  xmlns="http://www.w3.org/2000/svg"
  viewBox="0 0 103 36"
  fill="none"
>
  <defs>
    <style>:root>g{display:none;}:root>g:target{display:inline;}</style>
    <g id="hp-instant-ink">
      <path
        d="M18 36C17.821 36 17.6428 35.9967 17.4651 35.9916L21.1436 25.8818H26.2061C27.0947 25.8818 28.0701 25.1987 28.374 24.3641L32.3649 13.402C33.0178 11.6073 31.9898 10.1389 30.0801 10.1389H23.0568L17.1639 26.3319H17.1617L13.821 35.5113C5.89534 33.627 0 26.5023 0 18C0 9.74294 5.56 2.78511 13.1402 0.664465L9.69305 10.1389H9.69208L3.96158 25.8818L7.77643 25.8821L12.6499 12.5046H15.5169L10.6434 25.8821L14.4568 25.8827L18.9983 13.402C19.6516 11.6073 18.6236 10.1389 16.7156 10.1389H13.5088L17.191 0.0189166C17.4593 0.00704165 17.7288 0 18 0C27.9411 0 35.9999 8.05886 35.9999 18C35.9999 27.941 27.9411 36 18 36ZM28.891 12.4949H26.0248L22.0109 23.5081H24.8771L28.891 12.4949Z"
      />
      <path
        d="M45.35 17.5C45.35 17.59 45.28 17.66 45.19 17.66H43.4C43.31 17.66 43.24 17.59 43.24 17.5L43.28 11.7L43.24 6.29C43.24 6.2 43.31 6.13 43.4 6.13H45.19C45.28 6.13 45.35 6.2 45.35 6.29L45.31 11.7L45.35 17.5Z"
      />
      <path
        d="M48.93 17.5C48.93 17.59 48.86 17.66 48.77 17.66H46.98C46.89 17.66 46.82 17.59 46.82 17.5L46.89 12.42L46.85 6.29C46.85 6.2 46.92 6.13 47.01 6.13H48.71C48.8 6.13 48.87 6.2 48.87 6.29L48.8 8.14999C49.52 6.95999 50.81 5.87 52.65 5.87C55.02 5.87 56.52 7.44 56.52 10.46V12.74L56.54 17.51C56.54 17.6 56.47 17.67 56.38 17.67H54.61C54.52 17.67 54.45 17.6 54.45 17.51L54.49 12.74V10.52C54.49 8.37 53.51 7.41 52.07 7.41C50.55 7.41 49.34 8.64 48.89 10.88V12.74L48.91 17.51L48.93 17.5Z"
      />
      <path
        d="M57.45 13.81C57.45 13.7 57.52 13.65 57.61 13.65H59.29C59.38 13.65 59.45 13.69 59.45 13.81C59.52 15.71 60.61 16.56 62.67 16.56C64.37 16.56 65.49 15.82 65.49 14.5C65.49 11.39 57.73 13.87 57.73 9.24C57.73 7.05 59.56 5.88 62.29 5.88C65.02 5.88 66.94 7.02 67.08 9.44C67.08 9.53 67.01 9.60001 66.92 9.60001H65.33C65.24 9.60001 65.17 9.56 65.17 9.44C65.04 7.92 63.94 7.2 62.26 7.2C60.67 7.2 59.66 7.8 59.66 9.12C59.66 12.03 67.45 9.52 67.45 14.36C67.45 16.6 65.35 17.9 62.57 17.9C59.48 17.9 57.51 16.54 57.45 13.81Z"
      />
      <path
        d="M73.83 6.14C73.92 6.14 73.99 6.21 73.99 6.3V7.49C73.99 7.58 73.92 7.65 73.83 7.65H71.14V14.47C71.14 15.9 71.61 16.33 72.59 16.33C73.04 16.33 73.49 16.26 73.8 16.2C73.91 16.18 73.98 16.22 73.98 16.33V17.43C73.98 17.52 73.94 17.59 73.85 17.61C73.38 17.72 72.78 17.88 72.22 17.88C70.54 17.88 69.11 17.03 69.11 14.52L69.13 7.65H67.79C67.7 7.65 67.63 7.58 67.63 7.49V6.3C67.63 6.21 67.7 6.14 67.79 6.14H69.13L69.09 3.41C69.09 3.32 69.16 3.25 69.25 3.25H71.02C71.11 3.25 71.18 3.32 71.18 3.41L71.16 6.14H73.85H73.83Z"
      />
      <path
        d="M82.29 6.28997C82.29 6.19997 82.36 6.12997 82.45 6.12997H84.2C84.29 6.12997 84.36 6.19997 84.36 6.28997L84.32 11.77L84.36 17.5C84.36 17.59 84.29 17.66 84.2 17.66H82.48C82.39 17.66 82.32 17.59 82.32 17.5L82.36 15.8C81.58 17.1 80.35 17.88 78.67 17.88C75.56 17.88 73.9 15.26 73.9 11.93C73.9 8.59997 75.67 5.90997 78.71 5.90997C80.32 5.90997 81.57 6.59997 82.34 7.87997L82.3 6.28997H82.29ZM82.4 12C82.42 9.04997 81.26 7.34997 79.22 7.31997C77 7.29997 75.98 9.14997 75.98 11.77C75.98 14.54 77.01 16.47 79.18 16.45C81.17 16.45 82.38 14.95 82.4 12Z"
      />
      <path
        d="M87.84 17.5C87.84 17.59 87.77 17.66 87.68 17.66H85.89C85.8 17.66 85.73 17.59 85.73 17.5L85.8 12.42L85.76 6.29C85.76 6.2 85.83 6.13 85.92 6.13H87.62C87.71 6.13 87.78 6.2 87.78 6.29L87.71 8.14999C88.43 6.95999 89.72 5.87 91.56 5.87C93.93 5.87 95.43 7.44 95.43 10.46V12.74L95.45 17.51C95.45 17.6 95.38 17.67 95.29 17.67H93.52C93.43 17.67 93.36 17.6 93.36 17.51L93.4 12.74V10.52C93.4 8.37 92.42 7.41 90.98 7.41C89.46 7.41 88.25 8.64 87.8 10.88V12.74L87.82 17.51L87.84 17.5Z"
      />
      <path
        d="M102.27 6.14C102.36 6.14 102.43 6.21 102.43 6.3V7.49C102.43 7.58 102.36 7.65 102.27 7.65H99.58V14.47C99.58 15.9 100.05 16.33 101.03 16.33C101.48 16.33 101.93 16.26 102.24 16.2C102.35 16.18 102.42 16.22 102.42 16.33V17.43C102.42 17.52 102.38 17.59 102.29 17.61C101.82 17.72 101.22 17.88 100.66 17.88C98.98 17.88 97.55 17.03 97.55 14.52L97.57 7.65H96.23C96.14 7.65 96.07 7.58 96.07 7.49V6.3C96.07 6.21 96.14 6.14 96.23 6.14H97.57L97.53 3.41C97.53 3.32 97.6 3.25 97.69 3.25H99.46C99.55 3.25 99.62 3.32 99.62 3.41L99.6 6.14H102.29H102.27Z"
      />
      <path
        d="M45.35 35.84C45.35 35.93 45.28 36 45.19 36H43.4C43.31 36 43.24 35.93 43.24 35.84L43.28 30.04L43.24 24.62C43.24 24.53 43.31 24.46 43.4 24.46H45.19C45.28 24.46 45.35 24.53 45.35 24.62L45.31 30.04L45.35 35.84Z"
      />
      <path
        d="M48.93 35.84C48.93 35.93 48.86 36 48.77 36H46.98C46.89 36 46.82 35.93 46.82 35.84L46.89 30.76L46.85 24.63C46.85 24.54 46.92 24.47 47.01 24.47H48.71C48.8 24.47 48.87 24.54 48.87 24.63L48.8 26.49C49.52 25.3 50.81 24.21 52.65 24.21C55.02 24.21 56.52 25.78 56.52 28.8V31.08L56.54 35.85C56.54 35.94 56.47 36.01 56.38 36.01H54.61C54.52 36.01 54.45 35.94 54.45 35.85L54.49 31.08V28.86C54.49 26.71 53.51 25.75 52.07 25.75C50.55 25.75 49.34 26.98 48.89 29.22V31.08L48.91 35.85L48.93 35.84Z"
      />
      <path
        d="M64.43 24.48H66.35C66.48 24.48 66.53 24.57 66.44 24.68L62.7 28.64L66.97 35.82C67.04 35.91 66.97 36 66.86 36H64.87C64.8 36 64.71 35.98 64.67 35.89L63.73 34.19L61.27 30.1L59.84 31.69L59.88 35.85C59.88 35.94 59.81 36.01 59.72 36.01H57.97C57.88 36.01 57.81 35.94 57.81 35.85L57.88 28.24L57.81 20.5C57.81 20.41 57.88 20.34 57.97 20.34H59.72C59.81 20.34 59.88 20.41 59.88 20.5L59.81 28.2V29.48L64.24 24.58C64.28 24.51 64.35 24.49 64.42 24.49L64.43 24.48Z"
      />
      <path
        d="M44.21 3.35001C45.13 3.35001 45.88 2.59647 45.88 1.68001C45.88 0.763546 45.13 0.0100098 44.21 0.0100098C43.29 0.0100098 42.54 0.763546 42.54 1.68001C42.54 2.59647 43.29 3.35001 44.21 3.35001Z"
      />
      <path
        d="M44.21 22.42C45.13 22.42 45.88 21.6665 45.88 20.75C45.88 19.8336 45.13 19.08 44.21 19.08C43.29 19.08 42.54 19.8336 42.54 20.75C42.54 21.6665 43.29 22.42 44.21 22.42Z"
      />
    </g>
    <g id="hp-instant-ink-dot1">
      <path
        d="M48.57 3.35001C49.49 3.35001 50.24 2.59647 50.24 1.68001C50.24 0.763546 49.49 0.0100098 48.57 0.0100098C47.65 0.0100098 46.9 0.763546 46.9 1.68001C46.9 2.59647 47.65 3.35001 48.57 3.35001Z"
      />
    </g>
    <g id="hp-instant-ink-dot2">
      <path
        d="M52.92 3.35001C53.84 3.35001 54.59 2.59647 54.59 1.68001C54.59 0.763546 53.84 0.0100098 52.92 0.0100098C52 0.0100098 51.25 0.763546 51.25 1.68001C51.25 2.59647 52 3.35001 52.92 3.35001Z"
      />
    </g>
    <g id="hp-instant-ink-dot3">
      <path
        d="M57.28 3.35001C58.2 3.35001 58.95 2.59647 58.95 1.68001C58.95 0.763546 58.2 0.0100098 57.28 0.0100098C56.36 0.0100098 55.61 0.763546 55.61 1.68001C55.61 2.59647 56.36 3.35001 57.28 3.35001Z"
      />
    </g>
    <g id="hp-instant-ink-dots">
      <use href="#hp-instant-ink-dot1"/>
      <use href="#hp-instant-ink-dot2"/>
      <use href="#hp-instant-ink-dot3"/>
    </g>
    <g id="hp-instant-ink-dots-color">
      <use href="#hp-instant-ink-dot1" fill="#12AAE2"/>
      <use href="#hp-instant-ink-dot2" fill="#E94093"/>
      <use href="#hp-instant-ink-dot3" fill="#FBD900"/>
    </g>
  </defs>
  <g id="multicolor-onLight">
    <use href="#hp-instant-ink" fill="black"/>
    <use href="#hp-instant-ink-dots-color"/>
  </g>
  <g id="multicolor-onDark">
    <use href="#hp-instant-ink" fill="white"/>
    <use href="#hp-instant-ink-dots-color"/>
  </g>
  <g id="singlecolor-onLight" fill="black">
    <use href="#hp-instant-ink"/>
    <use href="#hp-instant-ink-dots"/>
  </g>
  <g id="singlecolor-onDark" fill="white">
    <use href="#hp-instant-ink"/>
    <use href="#hp-instant-ink-dots"/>
  </g>
</svg>
